<svg xmlns="http://www.w3.org/2000/svg" xmlns:xlink="http://www.w3.org/1999/xlink" xmlns:lucid="lucid" width="1785" height="1561"><g transform="translate(1522.5 420.5)" lucid:page-tab-id="0_0"><path d="M-2000-500H500v2000h-2500z" fill="#fff"/><path d="M-980-415a5 5 0 0 1 5-5h610a5 5 0 0 1 5 5v1550a5 5 0 0 1-5 5h-610a5 5 0 0 1-5-5z" stroke="#333" fill-opacity="0"/><path d="M-1447.25 687.72v-.47A47.25 47.25 0 0 1-1400 640a47.25 47.25 0 0 1 47.25 47.25A47.25 47.25 0 0 1-1400 734.5a47.25 47.25 0 0 1-47.25-47.25v-.47" stroke="#00c2a8" stroke-width="5" fill="#6db1ff"/><path d="M-1520 645a5 5 0 0 1 5-5h230a5 5 0 0 1 5 5v368a5 5 0 0 1-5 5h-230a5 5 0 0 1-5-5z" fill="none"/><path d="M-1400 734.5v132.3l120 151.2m-120-151.2l-120 151.2m0-236.25h240" stroke="#00c2a8" stroke-width="5" fill="none"/><path d="M-542.5-125.23c0 32.6-61.56 59-137.5 59s-137.5-26.4-137.5-59c0-32.58 61.56-59 137.5-59s137.5 26.42 137.5 59z" stroke="#000" stroke-width="2" fill="#fff"/><use xlink:href="#a" transform="matrix(1,0,0,1,-817.5,-184.22790898711264) translate(30.820972222222203 66.42708333333333)"/><use xlink:href="#b" transform="matrix(1,0,0,1,-817.5,-184.22790898711264) translate(97.49848958333332 66.42708333333333)"/><use xlink:href="#c" transform="matrix(1,0,0,1,-817.5,-184.22790898711264) translate(150.84050347222222 66.42708333333333)"/><path d="M-542.5 18.23c0 32.6-61.56 59-137.5 59s-137.5-26.4-137.5-59c0-32.58 61.56-59 137.5-59s137.5 26.42 137.5 59z" stroke="#000" stroke-width="2" fill="#fff"/><use xlink:href="#d" transform="matrix(1,0,0,1,-817.5,-40.76677913181089) translate(50.82422743055556 66.42708333333333)"/><use xlink:href="#e" transform="matrix(1,0,0,1,-817.5,-40.76677913181089) translate(130.8372482638889 66.42708333333333)"/><use xlink:href="#f" transform="matrix(1,0,0,1,-817.5,-40.76677913181089) translate(184.17926215277777 66.42708333333333)"/><path d="M-542.5 161.7c0 32.58-61.56 59-137.5 59s-137.5-26.42-137.5-59c0-32.6 61.56-59 137.5-59s137.5 26.4 137.5 59z" stroke="#000" stroke-width="2" fill="#fff"/><use xlink:href="#g" transform="matrix(1,0,0,1,-817.5,102.69435072349097) translate(10.817717013888862 66.42708333333333)"/><use xlink:href="#h" transform="matrix(1,0,0,1,-817.5,102.69435072349097) translate(104.16624131944444 66.42708333333333)"/><use xlink:href="#i" transform="matrix(1,0,0,1,-817.5,102.69435072349097) translate(170.84375868055554 66.42708333333333)"/><path d="M-542.5 739c0 32.6-61.56 59-137.5 59s-137.5-26.4-137.5-59 61.56-59 137.5-59 137.5 26.4 137.5 59z" stroke="#000" stroke-width="2" fill="#fff"/><use xlink:href="#j" transform="matrix(1,0,0,1,-817.5,680) translate(37.48872395833333 66.42708333333333)"/><use xlink:href="#k" transform="matrix(1,0,0,1,-817.5,680) translate(104.16624131944445 66.42708333333333)"/><use xlink:href="#l" transform="matrix(1,0,0,1,-817.5,680) translate(144.17275173611114 66.42708333333333)"/><use xlink:href="#m" transform="matrix(1,0,0,1,-817.5,680) translate(170.84375868055554 66.42708333333333)"/><path d="M-542.5 305.15c0 32.6-61.56 59-137.5 59s-137.5-26.4-137.5-59c0-32.58 61.56-59 137.5-59s137.5 26.42 137.5 59z" stroke="#000" stroke-width="2" fill="#fff"/><use xlink:href="#n" transform="matrix(1,0,0,1,-817.5,246.15548057879278) translate(30.820972222222203 66.42708333333333)"/><use xlink:href="#o" transform="matrix(1,0,0,1,-817.5,246.15548057879278) translate(124.16949652777778 66.42708333333333)"/><path d="M-542.5 592.08c0 32.58-61.56 59-137.5 59s-137.5-26.42-137.5-59c0-32.6 61.56-59 137.5-59s137.5 26.4 137.5 59z" stroke="#000" stroke-width="2" fill="#fff"/><use xlink:href="#g" transform="matrix(1,0,0,1,-817.5,533.0777402893963) translate(10.817717013888862 66.42708333333333)"/><use xlink:href="#p" transform="matrix(1,0,0,1,-817.5,533.0777402893963) translate(104.16624131944444 66.42708333333333)"/><path d="M-1452.25-187.23v-.52A52.25 52.25 0 0 1-1400-240a52.25 52.25 0 0 1 52.25 52.25A52.25 52.25 0 0 1-1400-135.5a52.25 52.25 0 0 1-52.25-52.25v-.52" stroke="#00c2a8" stroke-width="5" fill="#6db1ff"/><path d="M-1520-235a5 5 0 0 1 5-5h230a5 5 0 0 1 5 5v408a5 5 0 0 1-5 5h-230a5 5 0 0 1-5-5z" fill="none"/><path d="M-1400-135.5V10.8l120 167.2m-120-167.2L-1520 178m0-261.25h240" stroke="#00c2a8" stroke-width="5" fill="none"/><path d="M-536 879c0 32.6-61.56 59-137.5 59S-811 911.6-811 879s61.56-59 137.5-59S-536 846.4-536 879z" stroke="#000" stroke-width="2" fill="#fff"/><use xlink:href="#q" transform="matrix(1,0,0,1,-810.996607169214,820) translate(10.817717013888862 66.42708333333333)"/><use xlink:href="#r" transform="matrix(1,0,0,1,-810.996607169214,820) translate(104.16624131944444 66.42708333333333)"/><path d="M-536 1022.46c0 32.6-61.56 59-137.5 59s-137.5-26.4-137.5-59c0-32.58 61.56-59 137.5-59s137.5 26.42 137.5 59z" stroke="#000" stroke-width="2" fill="#fff"/><use xlink:href="#s" transform="matrix(1,0,0,1,-810.996607169214,963.4611298553018) translate(24.15322048611109 66.42708333333333)"/><use xlink:href="#t" transform="matrix(1,0,0,1,-810.996607169214,963.4611298553018) translate(117.50174479166667 66.42708333333333)"/><path d="M-1490 206a6 6 0 0 1 6-6h158a6 6 0 0 1 6 6v28a6 6 0 0 1-6 6h-158a6 6 0 0 1-6-6z" fill="none"/><use xlink:href="#u" transform="matrix(1,0,0,1,-1490,200) translate(12.376302083333329 29.700520833333336)"/><path d="M50 13.78v-.7a70 70 0 0 1 70-70 70 70 0 0 1 70 70 70 70 0 0 1-70 70 70 70 0 0 1-70-70v-.7" stroke="#00c2a8" stroke-width="5" fill="#6db1ff"/><path d="M-20-51.92a5 5 0 0 1 5-5h270a5 5 0 0 1 5 5V673a5 5 0 0 1-5 5H-15a5 5 0 0 1-5-5z" fill="none"/><path d="M120 83.08v300.95L260 678M120 384.03L-20 678m0-524.92h280" stroke="#00c2a8" stroke-width="5" fill="none"/><path d="M-1396-19.97l8.4.18 9.7.62 9.54 1 9.45 1.4 9.38 1.8 9.38 2.2 9.4 2.62 9.5 3.08 9.6 3.58 9.78 4.1 10 4.72 10.3 5.4 10.68 6.15 11.13 7.06 11.7 8.14 12.38 9.4 13.28 11 14.4 12.98 15.9 15.57 17.9 19.1 20.85 24.2 25.67 32.45 35.72 49.35L-888.5 508l33.14 41.88 25.17 29.2" stroke="#008573" stroke-width="3" stroke-linejoin="round" fill="none"/><path d="M-1395.95-19.97l-4.54-.1" stroke="#008573" stroke-width="3" fill="none"/><path d="M-820.5 589.85l-14.27-4.65 11.16-10.03z" stroke="#008573" stroke-width="3" fill="#008573"/><path d="M-1515 1046a6 6 0 0 1 6-6h208a6 6 0 0 1 6 6v28a6 6 0 0 1-6 6h-208a6 6 0 0 1-6-6z" fill="none"/><use xlink:href="#v" transform="matrix(1,0,0,1,-1515,1040) translate(4.803385416666657 29.700520833333336)"/><use xlink:href="#w" transform="matrix(1,0,0,1,-1515,1040) translate(124.37369791666667 29.700520833333336)"/><path d="M25 760.54a6 6 0 0 1 6-6h178a6 6 0 0 1 6 6v28a6 6 0 0 1-6 6H31a6 6 0 0 1-6-6z" fill="none"/><use xlink:href="#x" transform="matrix(1,0,0,1,24.999999999999886,754.5388701446982) translate(14.080729166666657 29.700520833333336)"/><use xlink:href="#y" transform="matrix(1,0,0,1,24.999999999999886,754.5388701446982) translate(74.171875 29.700520833333336)"/><path d="M-940-394a6 6 0 0 1 6-6h528a6 6 0 0 1 6 6v38.3a6 6 0 0 1-6 6h-528a6 6 0 0 1-6-6z" fill="none"/><use xlink:href="#z" transform="matrix(1,0,0,1,-940,-400) translate(69.06141493055554 36.81727430555556)"/><use xlink:href="#A" transform="matrix(1,0,0,1,-940,-400) translate(160.86046006944443 36.81727430555556)"/><use xlink:href="#B" transform="matrix(1,0,0,1,-940,-400) translate(230.26801215277777 36.81727430555556)"/><use xlink:href="#C" transform="matrix(1,0,0,1,-940,-400) translate(321.8240017361111 36.81727430555556)"/><path d="M-542.5 448.62c0 32.58-61.56 59-137.5 59s-137.5-26.42-137.5-59c0-32.6 61.56-59 137.5-59s137.5 26.4 137.5 59z" stroke="#000" stroke-width="2" fill="#fff"/><use xlink:href="#D" transform="matrix(1,0,0,1,-817.5,389.6166104340946) translate(30.820972222222203 66.42708333333333)"/><use xlink:href="#b" transform="matrix(1,0,0,1,-817.5,389.6166104340946) translate(97.49848958333332 66.42708333333333)"/><use xlink:href="#E" transform="matrix(1,0,0,1,-817.5,389.6166104340946) translate(150.84050347222222 66.42708333333333)"/><path d="M-1396.47 841.1l26.34 27.98 29.2 28.5 30.36 27.3 30.73 25.37 30.16 22.85 28.76 19.95 26.68 16.9 24.2 13.95 21.55 11.25 19 8.92 16.58 6.96 14.44 5.37 12.57 4.07 10.96 3.06 9.6 2.24 8.42 1.6.6.1 7.62 1.1 7.23.73 6.94.4 6.76.12 6.66-.17 6.67-.45 6.8-.75 7.06-1.08 7.57-1.47 8.46-2.03 10.2-2.9 15.28-5.1 55.25-19.53 14.1-4.02 12.7-3.04 12.22-2.4 12.17-1.84 12.43-1.36 10.7-.72" stroke="#008573" stroke-width="3" stroke-linejoin="round" fill="none"/><path d="M-1396.44 841.12l-3.1-3.3" stroke="#008573" stroke-width="3" fill="none"/><path d="M-815 1022.55l-12.77 7.87-.43-15z" stroke="#008573" stroke-width="3" fill="#008573"/><path d="M116 321.57l-58.14 1.24-61.65 3.88-58 6.08-50.88 7.5-42.75 8.1-35.15 8.23-28.7 7.98-23.4 7.6-19.2 7.12-15.87 6.66-13.2 6.2-11.1 5.8-9.37 5.4-8 5.07-6.85 4.76-5.9 4.47-2.13 1.7-5.04 4.32-4.8 4.46-4.62 4.67-4.48 4.93-4.4 5.26-4.36 5.7-4.44 6.34-4.65 7.27-5.18 8.9-6.9 13.14-20.23 40.57-4.3 7.38-3.7 5.75-3.36 4.82-3.22 4.2-3.13 3.74-3.1 3.4-3.1 3.15-3.16 2.92-3.2 2.75-3.33 2.6-3.43 2.5-3.6 2.35-3.8 2.28-4 2.18-4.3 2.1-4.62 2.04-5 1.96-5.48 1.87-6.03 1.8-6.72 1.68-7.55 1.57-8.58 1.4-9.9 1.2-11.57.92-2.45.1" stroke="#008573" stroke-width="3" stroke-linejoin="round" fill="none"/><path d="M115.96 321.57l4.53-.1" stroke="#008573" stroke-width="3" fill="none"/><path d="M-538.5 592l12.78-7.85.4 15z" stroke="#008573" stroke-width="3" fill="#008573"/><path d="M116 321.5l-253.8-4.67-386.22-11.17" stroke="#008573" stroke-width="3" stroke-linejoin="round" fill="none"/><path d="M115.95 321.5l4.54.1" stroke="#008573" stroke-width="3" fill="none"/><path d="M-538.5 305.24l13.2-7.12-.43 15z" stroke="#008573" stroke-width="3" fill="#008573"/><path d="M-1396-19.97l25.7.53 24.2 1.5 21.82 2.3 20 2.95 18.55 3.54 17.48 4.1 16.72 4.67 16.27 5.3 16.17 6 16.5 6.95 17.54 8.25 20 10.48 27.9 16.2 86.22 52.33 20 10.5 17.53 8.25 16.5 6.94 16.16 6 16.27 5.3 16.72 4.66 17.48 4.1 18.56 3.53 19.98 2.94 21.82 2.28 24.2 1.52 9.7.2" stroke="#008573" stroke-width="3" stroke-linejoin="round" fill="none"/><path d="M-1395.95-19.97l-4.54-.1" stroke="#008573" stroke-width="3" fill="none"/><path d="M-821.5 161.63l-13.14 7.24.3-15z" stroke="#008573" stroke-width="3" fill="#008573"/><path d="M116 321.5l-20.04-.4-19.84-1.25-18.45-1.94-17.3-2.54-16.35-3.1-15.6-3.67-14.98-4.2-14.52-4.7-14.2-5.3-14.03-5.9-14.02-6.58-14.16-7.4-14.55-8.42-15.3-9.7-16.54-11.52-18.93-14.4-24.44-20.26-113.96-100.94-18.93-14.4-16.55-11.5-15.3-9.7-14.54-8.42-14.16-7.4-14-6.6-14.03-5.9-14.22-5.28-14.52-4.72-15-4.18-15.58-3.65-16.35-3.12-17.3-2.54-18.45-1.94-19.84-1.24-4.05-.1" stroke="#008573" stroke-width="3" stroke-linejoin="round" fill="none"/><path d="M115.95 321.5l4.54.1" stroke="#008573" stroke-width="3" fill="none"/><path d="M-538.5 18.3l13.14-7.24-.3 15z" stroke="#008573" stroke-width="3" fill="#008573"/><path d="M116 321.5l-13.33-.27-14.02-.88-13.34-1.4-12.76-1.88-12.3-2.35-11.88-2.8-11.56-3.22-11.32-3.67-11.14-4.14-11-4.64-10.97-5.16-10.98-5.75-11.08-6.4-11.25-7.13-11.54-8.02-11.94-9.07-12.54-10.38-13.37-12.05-14.62-14.32-16.58-17.67-20.2-23.45-30.55-38.75-90.05-118.64L-292.5-4l-16.58-17.67-14.6-14.32-13.38-12.04-12.53-10.38-11.93-9.07-11.54-8-11.25-7.15-11.07-6.4-10.97-5.74-10.96-5.14-11-4.64-11.15-4.14-11.3-3.67-11.58-3.22-11.9-2.8-12.28-2.33-12.77-1.9-13.35-1.4-11.37-.7" stroke="#008573" stroke-width="3" stroke-linejoin="round" fill="none"/><path d="M115.95 321.5l4.54.1" stroke="#008573" stroke-width="3" fill="none"/><path d="M-538.5-125.15l13.2-7.14-.42 15z" stroke="#008573" stroke-width="3" fill="#008573"/><path d="M116 321.5l-9.8-.2-10.85-.68-10.44-1.1-10.1-1.5-9.85-1.87-9.62-2.25-9.44-2.64-9.32-3.02-9.23-3.43-9.18-3.85L9 296.63l-9.23-4.83-9.3-5.38-9.47-6-9.65-6.7-9.93-7.55-10.27-8.5-10.73-9.67-11.3-11.1-12.1-12.86-13.1-15.2-14.55-18.4-16.78-23.13-20.76-31.3-31.66-52.57-96.02-166.58-20.75-31.3-16.77-23.15-14.56-18.4-13.1-15.2-12.08-12.86-11.32-11.1-10.73-9.65-10.27-8.52-9.93-7.54-9.65-6.7-9.46-6-9.3-5.4-9.23-4.82-9.17-4.32-9.18-3.86-9.23-3.43-9.3-3-9.45-2.65-9.62-2.25-9.84-1.88-10.1-1.5-10.45-1.1-4.67-.3" stroke="#008573" stroke-width="3" stroke-linejoin="round" fill="none"/><path d="M115.95 321.5l4.54.1" stroke="#008573" stroke-width="3" fill="none"/><path d="M-538.5-268.58l13.25-7.04-.54 15z" stroke="#008573" stroke-width="3" fill="#008573"/><path d="M-1396 840.1l24.15 1.4 25.55 2.58 25.75 3.7 26.34 4.9 27.47 6.33 29.56 8.14 33.65 10.8 44.78 16.52 125.3 49.72 19.67 6.32 15.22 4.2 12.74 2.93 11.1 2.08 9.98 1.44 9.15.93 8.5.5 8.05.13 7.65-.2 7.38-.48 7.16-.78 7-1.07 6.9-1.35 6.85-1.63 6.84-1.95 6.88-2.27 6.95-2.62 7.07-3 7.25-3.46 7.47-3.95 7.77-4.53 8.12-5.2 8.55-6 9.1-6.98 5-4.16" stroke="#008573" stroke-width="3" stroke-linejoin="round" fill="none"/><path d="M-1395.95 840.1l-4.54-.27" stroke="#008573" stroke-width="3" fill="none"/><path d="M-804.22 903.52l-4.82 14.2-9.9-11.27z" stroke="#008573" stroke-width="3" fill="#008573"/><path d="M-1396-19.97l5.34.1 6.65.43 6.48.68 6.36.94 6.27 1.2 6.2 1.45 6.14 1.72 6.13 2 6.12 2.26 6.13 2.6 6.2 2.9 6.26 3.3 6.36 3.67 6.5 4.13 6.67 4.64 6.88 5.22 7.13 5.9 7.4 6.67 7.78 7.62 8.2 8.73 8.73 10.1 9.35 11.83 10.16 14 11.18 16.86 12.56 20.77 14.5 26.46 17.66 35.64 24.08 54.33 121.24 301 17.64 35.64 14.52 26.47 12.56 20.77 11.18 16.86 10.16 14 9.35 11.8 8.72 10.12 8.2 8.73 7.76 7.62 7.4 6.68 7.13 5.9 6.87 5.2 6.66 4.65 6.5 4.13 6.38 3.68 6.28 3.3 6.2 2.9 6.13 2.6 6.13 2.26 6.13 2 6.14 1.7 6.2 1.46 6.26 1.2 6.36.94 2.53.26" stroke="#008573" stroke-width="3" stroke-linejoin="round" fill="none"/><path d="M-1395.95-19.97l-4.54-.1" stroke="#008573" stroke-width="3" fill="none"/><path d="M-821.5 738.83l-13.38 6.76.83-14.98z" stroke="#008573" stroke-width="3" fill="#008573"/><path d="M-1396 840.03l30.86.66 38.7 2.46 53.42 5.7 191.7 25.83 28.56 1.8 22.32.5 18.66-.38 16.2-1.02 14.46-1.5 13.12-1.94 12.08-2.3 11.25-2.64 10.6-2.96 10.05-3.26 9.6-3.57 9.26-3.9 8.96-4.2 8.74-4.58 8.55-4.94 8.42-5.34 8.34-5.8 8.3-6.3 8.3-6.85 8.3-7.5 8.4-8.2 8.5-9.07 7.9-9.15" stroke="#008573" stroke-width="3" stroke-linejoin="round" fill="none"/><path d="M-1395.95 840.03l-4.54-.1" stroke="#008573" stroke-width="3" fill="none"/><path d="M-803.44 770.22l-2.18 14.84-11.76-9.32z" stroke="#008573" stroke-width="3" fill="#008573"/><path d="M116 321.57l-14.34.3-14.9.93-14.15 1.5-13.48 1.98-12.95 2.47-12.5 2.93-12.12 3.38L9.7 338.9l-11.62 4.34-11.5 4.83-11.43 5.38-11.45 6-11.56 6.66-11.76 7.48-12.1 8.4-12.58 9.57-13.32 11.02-14.4 12.98-16.1 15.8-19.13 20.4-26.6 30.93-102.9 126.1-19.13 20.42-16.1 15.8-14.4 12.97L-339.7 669l-12.6 9.55-12.08 8.4-11.76 7.48-11.56 6.67-11.45 6-11.43 5.37-11.5 4.83-11.63 4.33-11.85 3.85-12.13 3.38-12.5 2.93-12.94 2.46-13.5 2-14.13 1.48-13.27.83" stroke="#008573" stroke-width="3" stroke-linejoin="round" fill="none"/><path d="M115.95 321.57l4.54-.1" stroke="#008573" stroke-width="3" fill="none"/><path d="M-538.5 738.93l12.8-7.82.37 15z" stroke="#008573" stroke-width="3" fill="#008573"/><path d="M-1396-19.97l14.1.3 15.1.94 14.64 1.54 14.3 2.12 14.03 2.68 13.83 3.24 13.7 3.83 13.63 4.43 13.63 5.07 13.72 5.77 13.88 6.53 14.13 7.4 14.47 8.35 14.95 9.5 15.6 10.84 16.43 12.48 17.56 14.55 19.15 17.24 21.46 21.03 25.27 26.95 33.2 38.6 156.26 194.83 21.54 23 17.76 17.4 15.44 13.93 6.12 5.06" stroke="#008573" stroke-width="3" stroke-linejoin="round" fill="none"/><path d="M-1395.95-19.97l-4.54-.1" stroke="#008573" stroke-width="3" fill="none"/><path d="M-820.84 446.73l-14.82-2.3 9.42-11.7z" stroke="#008573" stroke-width="3" fill="#008573"/><path d="M-542.5-268.7c0 32.6-61.56 59-137.5 59s-137.5-26.4-137.5-59c0-32.57 61.56-59 137.5-59s137.5 26.43 137.5 59z" stroke="#000" stroke-width="2" fill="#fff"/><path d="M-800-292.7a6 6 0 0 1 6-6h228a6 6 0 0 1 6 6v48a6 6 0 0 1-6 6h-228a6 6 0 0 1-6-6z" fill="none"/><g><use xlink:href="#F" transform="matrix(1,0,0,1,-800,-298.68903884241445) translate(13.3159722222222 22.72026909722222)"/><use xlink:href="#G" transform="matrix(1,0,0,1,-800,-298.68903884241445) translate(106.66449652777777 22.72026909722222)"/><use xlink:href="#H" transform="matrix(1,0,0,1,-800,-298.68903884241445) translate(173.34201388888889 22.72026909722222)"/><use xlink:href="#I" transform="matrix(1,0,0,1,-800,-298.68903884241445) translate(200.01302083333334 22.72026909722222)"/><use xlink:href="#J" transform="matrix(1,0,0,1,-800,-298.68903884241445) translate(66.6579861111111 50.832248263888886)"/></g><defs><path fill="#008a0e" d="M713 0H515L10-1349h201C345-955 498-579 615-168c116-411 269-787 402-1181h201" id="K"/><path fill="#008a0e" d="M745-142h380V0H143v-142h422v-798H246v-142h499v940zM545-1292v-192h200v192H545" id="L"/><path fill="#008a0e" d="M617-1102c355 0 481 238 477 599H322c5 222 84 388 301 388 144 0 244-59 284-166l158 45C1002-72 854 20 623 20c-342 0-490-220-490-568 0-346 151-554 484-554zm291 461c-18-192-90-328-289-328-194 0-287 128-295 328h584" id="M"/><path fill="#008a0e" d="M1018 0H814c-67-224-138-444-200-673C552-442 476-224 407 0H204L21-1082h178c43 310 105 601 126 933 54-225 128-425 193-638h193c63 212 134 415 185 638 22-336 90-622 136-933h176" id="N"/><g id="a"><use transform="matrix(0.010850694444444444,0,0,0.010850694444444444,0,0)" xlink:href="#K"/><use transform="matrix(0.010850694444444444,0,0,0.010850694444444444,13.335503472222221,0)" xlink:href="#L"/><use transform="matrix(0.010850694444444444,0,0,0.010850694444444444,26.671006944444443,0)" xlink:href="#M"/><use transform="matrix(0.010850694444444444,0,0,0.010850694444444444,40.006510416666664,0)" xlink:href="#N"/></g><path fill="#008a0e" d="M587-135c154 0 209-115 209-281v-777H485v-156h501v929C982-148 857 20 586 20c-254 0-368-136-410-370l187-31c24 134 77 246 224 246" id="O"/><path fill="#008a0e" d="M615-1102c343 0 484 203 482 560-1 347-147 562-488 562-336 0-475-219-479-562-4-349 156-560 485-560zm-8 989c240 0 301-180 301-429 0-245-55-427-290-427-236 0-299 181-299 427 0 243 61 429 288 429" id="P"/><path fill="#008a0e" d="M365-904c58-129 161-200 334-200 130 0 228 46 293 138s98 233 98 420c0 189-34 331-102 425S824 20 698 20c-170 0-275-64-336-184 0 55-3 116-9 164H179c5-68 6-147 6-223v-1261h180c-2 193 4 394-4 580h4zm283 791c221 0 256-197 256-427 0-229-34-425-254-425-236 0-285 195-285 441 0 237 53 411 283 411" id="Q"/><g id="b"><use transform="matrix(0.010850694444444444,0,0,0.010850694444444444,0,0)" xlink:href="#O"/><use transform="matrix(0.010850694444444444,0,0,0.010850694444444444,13.335503472222221,0)" xlink:href="#P"/><use transform="matrix(0.010850694444444444,0,0,0.010850694444444444,26.671006944444443,0)" xlink:href="#Q"/></g><path fill="#008a0e" d="M473-1349c438-1 655 221 652 661C1122-268 945-8 532 0H162v-1349h311zm42 1193c308-4 416-205 418-532 2-330-131-509-459-505H353v1037h162" id="R"/><path fill="#008a0e" d="M682 16c-209 0-323-80-324-285v-671H190v-142h170l58-282h120v282h432v142H538v652c2 114 60 155 182 155 106 0 209-16 297-34v137C921-4 806 16 682 16" id="S"/><path fill="#008a0e" d="M1000-272c3 95 12 159 101 161 21 0 41-3 59-7V-6c-44 10-86 16-139 16-141 2-191-84-197-217h-6C748-76 648 20 446 20c-207 0-318-120-318-322 0-266 194-348 454-354l236-4c12-191-40-305-222-305-140 0-220 47-232 172l-188-17c33-204 181-292 423-292 255 0 401 118 401 364v466zm-683-27c0 109 63 184 175 182 166-3 259-96 306-217 24-65 20-120 20-200-232 7-501-28-501 235" id="T"/><path fill="#008a0e" d="M736-142h380V0H134v-142h422v-1200H267v-142h469v1342" id="U"/><path fill="#008a0e" d="M873-819c-18-114-119-146-250-146-163 0-245 50-245 151 0 151 170 148 294 185 182 54 388 94 388 320 0 240-189 325-439 329-245 4-410-69-454-268l159-31c24 133 136 168 295 165 144-2 270-31 270-171 0-164-195-160-331-202-167-52-350-87-350-299 0-218 173-315 413-313 220 2 373 77 412 260" id="V"/><g id="c"><use transform="matrix(0.010850694444444444,0,0,0.010850694444444444,0,0)" xlink:href="#R"/><use transform="matrix(0.010850694444444444,0,0,0.010850694444444444,13.335503472222221,0)" xlink:href="#M"/><use transform="matrix(0.010850694444444444,0,0,0.010850694444444444,26.671006944444443,0)" xlink:href="#S"/><use transform="matrix(0.010850694444444444,0,0,0.010850694444444444,40.006510416666664,0)" xlink:href="#T"/><use transform="matrix(0.010850694444444444,0,0,0.010850694444444444,53.342013888888886,0)" xlink:href="#L"/><use transform="matrix(0.010850694444444444,0,0,0.010850694444444444,66.67751736111111,0)" xlink:href="#U"/><use transform="matrix(0.010850694444444444,0,0,0.010850694444444444,80.01302083333334,0)" xlink:href="#V"/></g><path fill="#008a0e" d="M1034 0L896-382H333L196 0H0l510-1349h217L1228 0h-194zM847-531c-77-225-157-447-231-674-69 231-154 451-232 674h463" id="W"/><path fill="#008a0e" d="M698-1104c312 3 392 244 392 558 0 315-82 566-392 566-169 0-277-65-331-184h-5c8 188 2 394 4 589H185V-858c0-76-1-156-6-224h175c6 52 9 120 10 178h4c58-122 150-202 330-200zm-49 991c225 0 255-203 255-433 0-225-32-419-253-419-236 0-285 192-285 441 0 237 53 411 283 411" id="X"/><path fill="#008a0e" d="M168 279c222 39 310-114 368-290L66-1082h192c120 299 249 590 362 896 115-301 235-597 351-896h190L705 0c-65 164-130 320-275 396-67 36-177 35-262 18V279" id="Y"/><g id="d"><use transform="matrix(0.010850694444444444,0,0,0.010850694444444444,0,0)" xlink:href="#W"/><use transform="matrix(0.010850694444444444,0,0,0.010850694444444444,13.335503472222221,0)" xlink:href="#X"/><use transform="matrix(0.010850694444444444,0,0,0.010850694444444444,26.671006944444443,0)" xlink:href="#X"/><use transform="matrix(0.010850694444444444,0,0,0.010850694444444444,40.006510416666664,0)" xlink:href="#U"/><use transform="matrix(0.010850694444444444,0,0,0.010850694444444444,53.342013888888886,0)" xlink:href="#Y"/></g><path fill="#008a0e" d="M839-1335c-182-6-269 67-259 253h491v142H580V0H400v-940H138v-142h262c-15-293 132-408 418-402 94 2 200 7 281 21v145c-75-10-177-14-260-17" id="Z"/><path fill="#008a0e" d="M839-1102c70 0 148 7 206 17v167c-112-18-268-36-363 15-129 69-208 203-208 395V0H294c-10-367 32-789-52-1082h171c21 75 41 161 48 250h5c67-152 152-270 373-270" id="aa"/><g id="e"><use transform="matrix(0.010850694444444444,0,0,0.010850694444444444,0,0)" xlink:href="#Z"/><use transform="matrix(0.010850694444444444,0,0,0.010850694444444444,13.335503472222221,0)" xlink:href="#P"/><use transform="matrix(0.010850694444444444,0,0,0.010850694444444444,26.671006944444443,0)" xlink:href="#aa"/></g><g id="f"><use transform="matrix(0.010850694444444444,0,0,0.010850694444444444,0,0)" xlink:href="#O"/><use transform="matrix(0.010850694444444444,0,0,0.010850694444444444,13.335503472222221,0)" xlink:href="#P"/><use transform="matrix(0.010850694444444444,0,0,0.010850694444444444,26.671006944444443,0)" xlink:href="#Q"/></g><path fill="#008a0e" d="M285-1169c8 382 2 780 4 1169H129v-1349h237c86 239 188 461 253 720 69-258 169-481 255-720h225V0H937c2-390-5-788 6-1169-75 255-170 488-259 729H547c-90-240-185-475-262-729" id="ab"/><path fill="#008a0e" d="M706-1102c241 0 344 136 343 381V0H868v-695c1-168-57-273-220-268-190 6-283 138-283 336V0H185c-3-360 6-732-6-1082h170c4 54 7 126 8 185h3c63-121 164-204 346-205" id="ac"/><path fill="#008a0e" d="M1048-32c-2 300-135 456-433 456-222-1-358-88-400-267l184-25c22 99 100 157 222 156 184-2 248-125 248-315 0-64 3-133-2-194C807-100 706-13 524-12c-306 0-381-228-381-537 0-318 85-550 400-550 164 0 271 83 325 202h3c1-60 3-134 12-185h171c-13 339-4 702-6 1050zM585-145c210-8 284-178 284-406 0-192-52-331-177-392-33-16-69-22-104-22-223 2-259 184-259 414 0 229 31 415 256 406" id="ad"/><g id="g"><use transform="matrix(0.010850694444444444,0,0,0.010850694444444444,0,0)" xlink:href="#ab"/><use transform="matrix(0.010850694444444444,0,0,0.010850694444444444,13.335503472222221,0)" xlink:href="#T"/><use transform="matrix(0.010850694444444444,0,0,0.010850694444444444,26.671006944444443,0)" xlink:href="#ac"/><use transform="matrix(0.010850694444444444,0,0,0.010850694444444444,40.006510416666664,0)" xlink:href="#T"/><use transform="matrix(0.010850694444444444,0,0,0.010850694444444444,53.342013888888886,0)" xlink:href="#ad"/><use transform="matrix(0.010850694444444444,0,0,0.010850694444444444,66.67751736111111,0)" xlink:href="#M"/></g><path fill="#008a0e" d="M604-135c236 0 291-142 291-376v-838h190v859c5 340-142 510-480 510-326 0-463-164-463-492v-877h191v851c-3 222 46 363 271 363" id="ae"/><g id="h"><use transform="matrix(0.010850694444444444,0,0,0.010850694444444444,0,0)" xlink:href="#ae"/><use transform="matrix(0.010850694444444444,0,0,0.010850694444444444,13.335503472222221,0)" xlink:href="#V"/><use transform="matrix(0.010850694444444444,0,0,0.010850694444444444,26.671006944444443,0)" xlink:href="#M"/><use transform="matrix(0.010850694444444444,0,0,0.010850694444444444,40.006510416666664,0)" xlink:href="#aa"/></g><path fill="#008a0e" d="M622-1349c296 4 497 117 497 404 0 282-193 424-485 431H353V0H162v-1349h460zm-15 684c195-3 320-88 320-277 0-184-129-255-328-254H353v531h254" id="af"/><g id="i"><use transform="matrix(0.010850694444444444,0,0,0.010850694444444444,0,0)" xlink:href="#af"/><use transform="matrix(0.010850694444444444,0,0,0.010850694444444444,13.335503472222221,0)" xlink:href="#aa"/><use transform="matrix(0.010850694444444444,0,0,0.010850694444444444,26.671006944444443,0)" xlink:href="#P"/><use transform="matrix(0.010850694444444444,0,0,0.010850694444444444,40.006510416666664,0)" xlink:href="#Z"/><use transform="matrix(0.010850694444444444,0,0,0.010850694444444444,53.342013888888886,0)" xlink:href="#L"/><use transform="matrix(0.010850694444444444,0,0,0.010850694444444444,66.67751736111111,0)" xlink:href="#U"/><use transform="matrix(0.010850694444444444,0,0,0.010850694444444444,80.01302083333334,0)" xlink:href="#M"/></g><path fill="#008a0e" d="M614-1226c-167 1-283 53-283 213 0 183 186 193 334 234 230 63 463 120 463 409 0 286-219 387-518 390C309 23 131-98 79-338l185-37c34 165 149 248 351 246 184-2 324-58 324-238 0-203-207-221-372-266-210-57-422-111-422-377 0-267 201-356 470-360 279-5 430 101 480 324l-188 33c-28-141-121-215-293-213" id="ag"/><g id="j"><use transform="matrix(0.010850694444444444,0,0,0.010850694444444444,0,0)" xlink:href="#ag"/><use transform="matrix(0.010850694444444444,0,0,0.010850694444444444,13.335503472222221,0)" xlink:href="#L"/><use transform="matrix(0.010850694444444444,0,0,0.010850694444444444,26.671006944444443,0)" xlink:href="#ad"/><use transform="matrix(0.010850694444444444,0,0,0.010850694444444444,40.006510416666664,0)" xlink:href="#ac"/></g><g id="k"><use transform="matrix(0.010850694444444444,0,0,0.010850694444444444,0,0)" xlink:href="#ae"/><use transform="matrix(0.010850694444444444,0,0,0.010850694444444444,13.335503472222221,0)" xlink:href="#X"/></g><path fill="#008a0e" d="M114 20l821-1504h178L296 20H114" id="ah"/><use transform="matrix(0.010850694444444444,0,0,0.010850694444444444,0,0)" xlink:href="#ah" id="l"/><path fill="#008a0e" d="M237 0v-1349h191v1193h672V0H237" id="ai"/><g id="m"><use transform="matrix(0.010850694444444444,0,0,0.010850694444444444,0,0)" xlink:href="#ai"/><use transform="matrix(0.010850694444444444,0,0,0.010850694444444444,13.335503472222221,0)" xlink:href="#P"/><use transform="matrix(0.010850694444444444,0,0,0.010850694444444444,26.671006944444443,0)" xlink:href="#ad"/><use transform="matrix(0.010850694444444444,0,0,0.010850694444444444,40.006510416666664,0)" xlink:href="#L"/><use transform="matrix(0.010850694444444444,0,0,0.010850694444444444,53.342013888888886,0)" xlink:href="#ac"/></g><path fill="#008a0e" d="M865-914c-3-187-2-380-2-570h180v1261c0 76 1 155 6 223H877c-8-49-9-116-10-174h-5C801-44 708 26 530 26c-135 0-234-46-297-139s-95-232-95-419c0-377 131-566 392-566 176 0 271 63 335 184zm-286-51c-222 0-255 197-255 427 0 229 31 425 253 425 237 0 286-195 286-441 0-238-52-411-284-411" id="aj"/><g id="n"><use transform="matrix(0.010850694444444444,0,0,0.010850694444444444,0,0)" xlink:href="#ae"/><use transform="matrix(0.010850694444444444,0,0,0.010850694444444444,13.335503472222221,0)" xlink:href="#X"/><use transform="matrix(0.010850694444444444,0,0,0.010850694444444444,26.671006944444443,0)" xlink:href="#U"/><use transform="matrix(0.010850694444444444,0,0,0.010850694444444444,40.006510416666664,0)" xlink:href="#P"/><use transform="matrix(0.010850694444444444,0,0,0.010850694444444444,53.342013888888886,0)" xlink:href="#T"/><use transform="matrix(0.010850694444444444,0,0,0.010850694444444444,66.67751736111111,0)" xlink:href="#aj"/></g><path fill="#008a0e" d="M1121-976c0 225-142 341-344 379L1177 0H957L591-575H353V0H162v-1349h482c281 3 477 100 477 373zM633-726c181-1 296-73 296-247 0-149-101-223-304-223H353v470h280" id="ak"/><path fill="#008a0e" d="M528 20c-247 0-343-132-343-381v-721h180v686c-4 177 45 284 224 277 194-8 279-136 279-336v-627h181c3 360-6 732 6 1082H885c-4-54-7-126-8-185h-3C809-64 714 20 528 20" id="al"/><path fill="#008a0e" d="M904-1102c199 0 220 177 220 381V0H956v-686c-3-114 0-215-60-264-70-33-125-4-158 71-26 56-39 140-39 252V0H531v-686c-3-114-1-215-61-264-78-41-136 24-157 84-24 69-39 159-39 259V0H105c-3-360 6-732-6-1082h149c6 50 3 123 8 175 36-100 83-195 216-195 135 0 166 79 196 196 42-105 93-196 236-196" id="am"/><path fill="#008a0e" d="M650-1214c-281 0-336 244-336 533 0 295 60 546 347 546 188 0 263-142 322-282l159 65C1058-155 935 20 659 20c-401 0-546-295-546-701 0-407 135-689 536-689 264 0 391 146 466 335l-168 65c-47-129-127-244-297-244" id="an"/><g id="o"><use transform="matrix(0.010850694444444444,0,0,0.010850694444444444,0,0)" xlink:href="#ak"/><use transform="matrix(0.010850694444444444,0,0,0.010850694444444444,13.335503472222221,0)" xlink:href="#M"/><use transform="matrix(0.010850694444444444,0,0,0.010850694444444444,26.671006944444443,0)" xlink:href="#V"/><use transform="matrix(0.010850694444444444,0,0,0.010850694444444444,40.006510416666664,0)" xlink:href="#al"/><use transform="matrix(0.010850694444444444,0,0,0.010850694444444444,53.342013888888886,0)" xlink:href="#am"/><use transform="matrix(0.010850694444444444,0,0,0.010850694444444444,66.67751736111111,0)" xlink:href="#M"/><use transform="matrix(0.010850694444444444,0,0,0.010850694444444444,80.01302083333334,0)" xlink:href="#ah"/><use transform="matrix(0.010850694444444444,0,0,0.010850694444444444,93.34852430555557,0)" xlink:href="#an"/><use transform="matrix(0.010850694444444444,0,0,0.010850694444444444,106.6840277777778,0)" xlink:href="#K"/></g><path fill="#008a0e" d="M631 20c-350 0-501-215-501-562 0-355 162-560 502-560 250 0 399 118 446 323l-192 14c-23-124-109-196-262-196-242 0-305 171-305 415 1 245 61 427 304 427 151 0 248-77 267-215l190 12C1039-107 883 20 631 20" id="ao"/><g id="p"><use transform="matrix(0.010850694444444444,0,0,0.010850694444444444,0,0)" xlink:href="#W"/><use transform="matrix(0.010850694444444444,0,0,0.010850694444444444,13.335503472222221,0)" xlink:href="#X"/><use transform="matrix(0.010850694444444444,0,0,0.010850694444444444,26.671006944444443,0)" xlink:href="#X"/><use transform="matrix(0.010850694444444444,0,0,0.010850694444444444,40.006510416666664,0)" xlink:href="#U"/><use transform="matrix(0.010850694444444444,0,0,0.010850694444444444,53.342013888888886,0)" xlink:href="#L"/><use transform="matrix(0.010850694444444444,0,0,0.010850694444444444,66.67751736111111,0)" xlink:href="#ao"/><use transform="matrix(0.010850694444444444,0,0,0.010850694444444444,80.01302083333334,0)" xlink:href="#T"/><use transform="matrix(0.010850694444444444,0,0,0.010850694444444444,93.34852430555557,0)" xlink:href="#S"/><use transform="matrix(0.010850694444444444,0,0,0.010850694444444444,106.6840277777778,0)" xlink:href="#L"/><use transform="matrix(0.010850694444444444,0,0,0.010850694444444444,120.01953125000003,0)" xlink:href="#P"/><use transform="matrix(0.010850694444444444,0,0,0.010850694444444444,133.35503472222226,0)" xlink:href="#ac"/><use transform="matrix(0.010850694444444444,0,0,0.010850694444444444,146.69053819444449,0)" xlink:href="#V"/></g><g id="q"><use transform="matrix(0.010850694444444444,0,0,0.010850694444444444,0,0)" xlink:href="#K"/><use transform="matrix(0.010850694444444444,0,0,0.010850694444444444,13.335503472222221,0)" xlink:href="#M"/><use transform="matrix(0.010850694444444444,0,0,0.010850694444444444,26.671006944444443,0)" xlink:href="#aa"/><use transform="matrix(0.010850694444444444,0,0,0.010850694444444444,40.006510416666664,0)" xlink:href="#L"/><use transform="matrix(0.010850694444444444,0,0,0.010850694444444444,53.342013888888886,0)" xlink:href="#Z"/><use transform="matrix(0.010850694444444444,0,0,0.010850694444444444,66.67751736111111,0)" xlink:href="#Y"/></g><path fill="#008a0e" d="M102-681c0-398 126-689 513-689 165 0 291 58 379 174s132 287 132 515c-1 318-88 554-298 657-123 61-317 58-438-3-206-104-288-341-288-654zm749 406c94-160 97-656-5-807-57-85-130-132-231-132-104 0-178 47-234 132-101 153-99 655 1 809 57 89 130 138 232 138 109 0 184-49 237-140" id="ap"/><path fill="#008a0e" d="M147 0v-137l681-806H187v-139h844v137L349-139h719V0H147" id="aq"/><g id="r"><use transform="matrix(0.010850694444444444,0,0,0.010850694444444444,0,0)" xlink:href="#ap"/><use transform="matrix(0.010850694444444444,0,0,0.010850694444444444,13.335503472222221,0)" xlink:href="#aa"/><use transform="matrix(0.010850694444444444,0,0,0.010850694444444444,26.671006944444443,0)" xlink:href="#ad"/><use transform="matrix(0.010850694444444444,0,0,0.010850694444444444,40.006510416666664,0)" xlink:href="#T"/><use transform="matrix(0.010850694444444444,0,0,0.010850694444444444,53.342013888888886,0)" xlink:href="#ac"/><use transform="matrix(0.010850694444444444,0,0,0.010850694444444444,66.67751736111111,0)" xlink:href="#L"/><use transform="matrix(0.010850694444444444,0,0,0.010850694444444444,80.01302083333334,0)" xlink:href="#aq"/><use transform="matrix(0.010850694444444444,0,0,0.010850694444444444,93.34852430555557,0)" xlink:href="#T"/><use transform="matrix(0.010850694444444444,0,0,0.010850694444444444,106.6840277777778,0)" xlink:href="#S"/><use transform="matrix(0.010850694444444444,0,0,0.010850694444444444,120.01953125000003,0)" xlink:href="#L"/><use transform="matrix(0.010850694444444444,0,0,0.010850694444444444,133.35503472222226,0)" xlink:href="#P"/><use transform="matrix(0.010850694444444444,0,0,0.010850694444444444,146.69053819444449,0)" xlink:href="#ac"/></g><g id="s"><use transform="matrix(0.010850694444444444,0,0,0.010850694444444444,0,0)" xlink:href="#ag"/><use transform="matrix(0.010850694444444444,0,0,0.010850694444444444,13.335503472222221,0)" xlink:href="#Y"/><use transform="matrix(0.010850694444444444,0,0,0.010850694444444444,26.671006944444443,0)" xlink:href="#V"/><use transform="matrix(0.010850694444444444,0,0,0.010850694444444444,40.006510416666664,0)" xlink:href="#S"/><use transform="matrix(0.010850694444444444,0,0,0.010850694444444444,53.342013888888886,0)" xlink:href="#M"/><use transform="matrix(0.010850694444444444,0,0,0.010850694444444444,66.67751736111111,0)" xlink:href="#am"/></g><g id="t"><use transform="matrix(0.010850694444444444,0,0,0.010850694444444444,0,0)" xlink:href="#ab"/><use transform="matrix(0.010850694444444444,0,0,0.010850694444444444,13.335503472222221,0)" xlink:href="#P"/><use transform="matrix(0.010850694444444444,0,0,0.010850694444444444,26.671006944444443,0)" xlink:href="#ac"/><use transform="matrix(0.010850694444444444,0,0,0.010850694444444444,40.006510416666664,0)" xlink:href="#L"/><use transform="matrix(0.010850694444444444,0,0,0.010850694444444444,53.342013888888886,0)" xlink:href="#S"/><use transform="matrix(0.010850694444444444,0,0,0.010850694444444444,66.67751736111111,0)" xlink:href="#P"/><use transform="matrix(0.010850694444444444,0,0,0.010850694444444444,80.01302083333334,0)" xlink:href="#aa"/><use transform="matrix(0.010850694444444444,0,0,0.010850694444444444,93.34852430555557,0)" xlink:href="#L"/><use transform="matrix(0.010850694444444444,0,0,0.010850694444444444,106.6840277777778,0)" xlink:href="#ac"/><use transform="matrix(0.010850694444444444,0,0,0.010850694444444444,120.01953125000003,0)" xlink:href="#ad"/></g><path fill="#008573" d="M135 0v-1490h997v253H440v360h640v249H440v375h694V0H135" id="ar"/><path fill="#008573" d="M135 0v-1490h468l242 684c30 94 76 293 111 455 34-161 80-360 110-455l238-684h470V0h-307c0-447-3-765 11-1227-122 503-246 788-395 1227H826C676-435 552-717 427-1215c15 453 11 775 11 1215H135" id="as"/><path fill="#008573" d="M135 0v-1490h581c339 0 533 210 533 503 0 295-197 500-540 500H440V0H135zm305-733h220c186 0 274-104 274-254s-88-251-275-251H440v505" id="at"/><path fill="#008573" d="M135 0v-1490h305v1237h643V0H135" id="au"/><path fill="#008573" d="M789 20C394 20 94-260 94-744c0-487 300-766 695-766s695 279 695 766c0 485-300 764-695 764zm0-271c231 0 385-174 385-493 0-321-154-495-385-495s-385 175-385 495c0 319 154 493 385 493" id="av"/><path fill="#008573" d="M601 0v-560L49-1490h357l252 464c38 68 67 130 97 208 96-243 225-446 337-672h356L905-560V0H601" id="aw"/><path fill="#008573" d="M135 0v-1490h581c339 0 533 192 533 485 0 204-94 351-264 424L1302 0H964L680-532H440V0H135zm305-779h220c186 0 274-77 274-226 0-150-88-233-275-233H440v459" id="ax"/><g id="u"><use transform="matrix(0.013020833333333334,0,0,0.013020833333333334,0,0)" xlink:href="#ar"/><use transform="matrix(0.013020833333333334,0,0,0.013020833333333334,16.197916666666668,0)" xlink:href="#as"/><use transform="matrix(0.013020833333333334,0,0,0.013020833333333334,41.04166666666667,0)" xlink:href="#at"/><use transform="matrix(0.013020833333333334,0,0,0.013020833333333334,58.3203125,0)" xlink:href="#au"/><use transform="matrix(0.013020833333333334,0,0,0.013020833333333334,72.64322916666667,0)" xlink:href="#av"/><use transform="matrix(0.013020833333333334,0,0,0.013020833333333334,92.04427083333334,0)" xlink:href="#aw"/><use transform="matrix(0.013020833333333334,0,0,0.013020833333333334,111.53645833333334,0)" xlink:href="#ar"/><use transform="matrix(0.013020833333333334,0,0,0.013020833333333334,127.734375,0)" xlink:href="#ax"/></g><path fill="#008573" d="M681 22C323 22 94-145 85-462h297c10 151 131 226 296 226 163 0 271-77 271-190 0-102-95-149-257-189l-164-41c-252-61-403-188-403-405 0-269 236-449 560-449 330 0 546 183 551 445H941c-11-119-106-188-259-188-156 0-244 72-244 172-3 156 226 185 373 221 250 61 445 186 445 436 0 271-213 446-575 446" id="ay"/><path fill="#008573" d="M75-1237v-253h1217v253H837V0H531v-1237H75" id="az"/><g id="v"><use transform="matrix(0.013020833333333334,0,0,0.013020833333333334,0,0)" xlink:href="#ay"/><use transform="matrix(0.013020833333333334,0,0,0.013020833333333334,17.4609375,0)" xlink:href="#aw"/><use transform="matrix(0.013020833333333334,0,0,0.013020833333333334,36.953125,0)" xlink:href="#ay"/><use transform="matrix(0.013020833333333334,0,0,0.013020833333333334,54.4140625,0)" xlink:href="#az"/><use transform="matrix(0.013020833333333334,0,0,0.013020833333333334,72.21354166666667,0)" xlink:href="#ar"/><use transform="matrix(0.013020833333333334,0,0,0.013020833333333334,88.41145833333334,0)" xlink:href="#as"/></g><path fill="#008573" d="M49 0l509-1490h400L1480 0h-339l-115-346H497L386 0H49zm524-585h374c-75-213-124-402-192-666-66 268-110 453-182 666" id="aA"/><path fill="#008573" d="M659 0H135v-1490h529c448 0 721 280 721 744 0 466-273 746-726 746zM440-263h204c287 0 437-148 437-483 0-333-150-481-435-481H440v964" id="aB"/><path fill="#008573" d="M440-1490V0H135v-1490h305" id="aC"/><path fill="#008573" d="M135 0v-1490h340l471 754c59 97 122 210 187 365-32-387-14-721-19-1119h312V0h-341C855-382 627-689 427-1113c32 420 16 695 20 1113H135" id="aD"/><g id="w"><use transform="matrix(0.013020833333333334,0,0,0.013020833333333334,0,0)" xlink:href="#aA"/><use transform="matrix(0.013020833333333334,0,0,0.013020833333333334,19.908854166666668,0)" xlink:href="#aB"/><use transform="matrix(0.013020833333333334,0,0,0.013020833333333334,39.16666666666667,0)" xlink:href="#as"/><use transform="matrix(0.013020833333333334,0,0,0.013020833333333334,64.01041666666667,0)" xlink:href="#aC"/><use transform="matrix(0.013020833333333334,0,0,0.013020833333333334,71.49739583333334,0)" xlink:href="#aD"/></g><path fill="#008573" d="M567 20C257 20 68-148 68-448v-87h305v92c0 143 75 217 194 217s193-74 193-218v-1046h302v1041c0 301-188 469-495 469" id="aE"/><path fill="#008573" d="M135 0v-1490h591c327 0 492 160 492 383 0 177-115 286-268 320v15c168 8 326 140 326 361 0 236-176 411-512 411H135zm305-251h264c179 0 258-76 258-189 0-125-97-215-250-215H440v404zm0-613h241c131 0 228-74 228-194 0-109-79-183-222-183H440v377" id="aF"/><g id="x"><use transform="matrix(0.013020833333333334,0,0,0.013020833333333334,0,0)" xlink:href="#aE"/><use transform="matrix(0.013020833333333334,0,0,0.013020833333333334,15.5859375,0)" xlink:href="#av"/><use transform="matrix(0.013020833333333334,0,0,0.013020833333333334,36.1328125,0)" xlink:href="#aF"/></g><path fill="#008573" d="M135 0v-1490h305c1 251 0 501-5 746 157-254 405-512 598-746h373L849-845 1422 0h-361L638-644 440-426V0H135" id="aG"/><g id="y"><use transform="matrix(0.013020833333333334,0,0,0.013020833333333334,0,0)" xlink:href="#ay"/><use transform="matrix(0.013020833333333334,0,0,0.013020833333333334,17.4609375,0)" xlink:href="#ar"/><use transform="matrix(0.013020833333333334,0,0,0.013020833333333334,33.65885416666667,0)" xlink:href="#ar"/><use transform="matrix(0.013020833333333334,0,0,0.013020833333333334,49.85677083333334,0)" xlink:href="#aG"/><use transform="matrix(0.013020833333333334,0,0,0.013020833333333334,69.03645833333334,0)" xlink:href="#ar"/><use transform="matrix(0.013020833333333334,0,0,0.013020833333333334,85.23437500000001,0)" xlink:href="#ax"/></g><g id="z"><use transform="matrix(0.015190972222222224,0,0,0.015190972222222224,0,0)" xlink:href="#aG"/><use transform="matrix(0.015190972222222224,0,0,0.015190972222222224,21.130642361111114,0)" xlink:href="#av"/><use transform="matrix(0.015190972222222224,0,0,0.015190972222222224,45.101996527777786,0)" xlink:href="#ax"/><use transform="matrix(0.015190972222222224,0,0,0.015190972222222224,65.53385416666667,0)" xlink:href="#ar"/></g><path fill="#008573" d="M750 21c-371 0-615-218-615-544v-967h305v942c0 174 123 299 310 299s309-125 309-299v-942h306v967c0 326-247 544-615 544" id="aH"/><g id="A"><use transform="matrix(0.015190972222222224,0,0,0.015190972222222224,0,0)" xlink:href="#aH"/><use transform="matrix(0.015190972222222224,0,0,0.015190972222222224,22.771267361111114,0)" xlink:href="#ay"/><use transform="matrix(0.015190972222222224,0,0,0.015190972222222224,43.142361111111114,0)" xlink:href="#ar"/></g><path fill="#008573" d="M786 20C389 20 94-260 94-744c0-487 299-766 692-766 339 0 597 194 641 529h-309c-28-162-156-258-326-258-233 0-388 179-388 495 0 323 157 493 387 493 170 0 298-97 328-259h309c-34 277-266 530-642 530" id="aI"/><g id="B"><use transform="matrix(0.015190972222222224,0,0,0.015190972222222224,0,0)" xlink:href="#aI"/><use transform="matrix(0.015190972222222224,0,0,0.015190972222222224,22.163628472222225,0)" xlink:href="#aA"/><use transform="matrix(0.015190972222222224,0,0,0.015190972222222224,44.919704861111114,0)" xlink:href="#ay"/><use transform="matrix(0.015190972222222224,0,0,0.015190972222222224,65.29079861111111,0)" xlink:href="#ar"/></g><path fill="#008573" d="M795 20C377 20 94-272 94-743c0-483 302-767 694-767 335 0 593 206 635 500h-310c-42-142-154-229-320-229-230 0-389 177-389 493s154 495 393 495c212 0 340-120 345-311H818v-232h620v186c0 391-269 628-643 628" id="aJ"/><g id="C"><use transform="matrix(0.015190972222222224,0,0,0.015190972222222224,0,0)" xlink:href="#aB"/><use transform="matrix(0.015190972222222224,0,0,0.015190972222222224,22.467447916666668,0)" xlink:href="#aC"/><use transform="matrix(0.015190972222222224,0,0,0.015190972222222224,31.202256944444446,0)" xlink:href="#aA"/><use transform="matrix(0.015190972222222224,0,0,0.015190972222222224,53.122829861111114,0)" xlink:href="#aJ"/><use transform="matrix(0.015190972222222224,0,0,0.015190972222222224,76.47135416666667,0)" xlink:href="#ax"/><use transform="matrix(0.015190972222222224,0,0,0.015190972222222224,96.90321180555556,0)" xlink:href="#aA"/><use transform="matrix(0.015190972222222224,0,0,0.015190972222222224,120.13020833333334,0)" xlink:href="#as"/></g><g id="D"><use transform="matrix(0.010850694444444444,0,0,0.010850694444444444,0,0)" xlink:href="#af"/><use transform="matrix(0.010850694444444444,0,0,0.010850694444444444,13.335503472222221,0)" xlink:href="#P"/><use transform="matrix(0.010850694444444444,0,0,0.010850694444444444,26.671006944444443,0)" xlink:href="#V"/><use transform="matrix(0.010850694444444444,0,0,0.010850694444444444,40.006510416666664,0)" xlink:href="#S"/></g><g id="E"><use transform="matrix(0.010850694444444444,0,0,0.010850694444444444,0,0)" xlink:href="#ai"/><use transform="matrix(0.010850694444444444,0,0,0.010850694444444444,13.335503472222221,0)" xlink:href="#L"/><use transform="matrix(0.010850694444444444,0,0,0.010850694444444444,26.671006944444443,0)" xlink:href="#V"/><use transform="matrix(0.010850694444444444,0,0,0.010850694444444444,40.006510416666664,0)" xlink:href="#S"/><use transform="matrix(0.010850694444444444,0,0,0.010850694444444444,53.342013888888886,0)" xlink:href="#L"/><use transform="matrix(0.010850694444444444,0,0,0.010850694444444444,66.67751736111111,0)" xlink:href="#ac"/><use transform="matrix(0.010850694444444444,0,0,0.010850694444444444,80.01302083333334,0)" xlink:href="#ad"/></g><path fill="#008a0e" d="M648-963c-190 6-283 138-283 336V0H185v-1484h181c-2 197 6 404-9 587h3c62-120 159-205 339-205 242 0 351 135 350 381V0H868v-695c1-168-57-273-220-268" id="aK"/><g id="F"><use transform="matrix(0.010850694444444444,0,0,0.010850694444444444,0,0)" xlink:href="#ag"/><use transform="matrix(0.010850694444444444,0,0,0.010850694444444444,13.335503472222221,0)" xlink:href="#M"/><use transform="matrix(0.010850694444444444,0,0,0.010850694444444444,26.671006944444443,0)" xlink:href="#T"/><use transform="matrix(0.010850694444444444,0,0,0.010850694444444444,40.006510416666664,0)" xlink:href="#aa"/><use transform="matrix(0.010850694444444444,0,0,0.010850694444444444,53.342013888888886,0)" xlink:href="#ao"/><use transform="matrix(0.010850694444444444,0,0,0.010850694444444444,66.67751736111111,0)" xlink:href="#aK"/></g><g id="G"><use transform="matrix(0.010850694444444444,0,0,0.010850694444444444,0,0)" xlink:href="#O"/><use transform="matrix(0.010850694444444444,0,0,0.010850694444444444,13.335503472222221,0)" xlink:href="#P"/><use transform="matrix(0.010850694444444444,0,0,0.010850694444444444,26.671006944444443,0)" xlink:href="#Q"/><use transform="matrix(0.010850694444444444,0,0,0.010850694444444444,40.006510416666664,0)" xlink:href="#V"/></g><path fill="#008a0e" d="M334-464v-160h560v160H334" id="aL"/><use transform="matrix(0.010850694444444444,0,0,0.010850694444444444,0,0)" xlink:href="#aL" id="H"/><path fill="#008a0e" d="M202-1349h823v156H709v1037h316V0H202v-156h316v-1037H202v-156" id="aM"/><g id="I"><use transform="matrix(0.010850694444444444,0,0,0.010850694444444444,0,0)" xlink:href="#W"/><use transform="matrix(0.010850694444444444,0,0,0.010850694444444444,13.335503472222221,0)" xlink:href="#aM"/></g><g id="J"><use transform="matrix(0.010850694444444444,0,0,0.010850694444444444,0,0)" xlink:href="#ag"/><use transform="matrix(0.010850694444444444,0,0,0.010850694444444444,13.335503472222221,0)" xlink:href="#M"/><use transform="matrix(0.010850694444444444,0,0,0.010850694444444444,26.671006944444443,0)" xlink:href="#am"/><use transform="matrix(0.010850694444444444,0,0,0.010850694444444444,40.006510416666664,0)" xlink:href="#T"/><use transform="matrix(0.010850694444444444,0,0,0.010850694444444444,53.342013888888886,0)" xlink:href="#ac"/><use transform="matrix(0.010850694444444444,0,0,0.010850694444444444,66.67751736111111,0)" xlink:href="#S"/><use transform="matrix(0.010850694444444444,0,0,0.010850694444444444,80.01302083333334,0)" xlink:href="#L"/><use transform="matrix(0.010850694444444444,0,0,0.010850694444444444,93.34852430555557,0)" xlink:href="#ao"/></g></defs></g></svg>